<svg class="art art--camera" viewBox="0 0 140 180" fill="none" stroke="currentColor"
     stroke-linecap="round" stroke-linejoin="round"
     role="img" aria-hidden="true" focusable="false" xmlns="http://www.w3.org/2000/svg">
  <!-- body: no straight lines, corners overshoot -->
  <path stroke-width="3.6" d="M21.6 73c15.6-2.2 31.4-3.2 47.2-3.1 15.8.1 31.4 1.3 47 3.5"/>
  <path stroke-width="3.6" d="M21.6 73c-1.8 17.8-2 35.6-.8 53.4"/>
  <path stroke-width="3.6" d="M115.8 73.4c1.8 17.8 2 35.6.8 53.4"/>
  <path stroke-width="3.6" d="M20.4 126.2c15.8 2.2 31.8 3.2 47.8 3.1 16 0 32-1.2 48-3.3"/>
  <!-- viewfinder hump -->
  <path stroke-width="3.2" d="M51.6 72.6c1.2-5.8 2.4-9.6 3.6-11.4 9.2-1.4 18.4-1.4 27.6.2 1.4 1.8 2.6 5.6 3.6 11.2"/>
  <!-- lens -->
  <path stroke-width="3.6" d="M69.6 82c10.2-.6 18.6 7.6 18.4 17.8-.2 9.9-8.4 17.8-18.4 17.6-10-.2-17.8-8.4-17.6-18.4.2-9.5 7.8-16.6 17.6-17z"/>
  <path stroke-width="2.8" d="M69.8 90.4c5.4-.4 9.8 3.8 9.6 9.2-.2 5.1-4.4 9-9.4 8.8-5.2-.2-9-4.4-8.8-9.4.2-4.7 4-8.3 8.6-8.6"/>
  <!-- shutter button + flash -->
  <path stroke-width="3" d="M97.4 82c3.2-.7 5.8 1.3 5.6 4.5-.2 3-2.6 4.9-5.6 4.2-2.8-.6-4-3-3.2-5.5.5-1.5 1.6-2.6 3.2-3.2z"/>
  <path stroke-width="2.8" d="M31.6 84c4.2-.8 7.2 0 9 1.9"/>
</svg>
