<svg role="img" aria-hidden="true" focusable="false" class="art art--rings" version="1.0" xmlns="http://www.w3.org/2000/svg"
  viewBox="0 0 2336.000000 2280.000000"
 preserveAspectRatio="xMidYMid meet">
<metadata>
Created by potrace 1.16, written by Peter Selinger 2001-2019
</metadata>
<g transform="translate(0.000000,2280.000000) scale(0.100000,-0.100000)"
fill="currentColor" stroke="none">
<path d="M8605 22133 c-77 -21 -116 -25 -275 -28 -102 -1 -205 -6 -230 -9 -25
-4 -102 0 -173 8 -100 12 -155 13 -260 6 -72 -6 -307 -14 -522 -20 -300 -7
-423 -14 -534 -30 -79 -11 -148 -23 -153 -26 -5 -4 -146 -7 -311 -9 -251 -1
-326 -5 -447 -23 -80 -12 -152 -25 -160 -28 -8 -3 -49 -9 -91 -15 -113 -14
-173 -32 -289 -88 -67 -32 -115 -63 -135 -85 -26 -30 -51 -42 -184 -86 -220
-73 -240 -82 -298 -148 -32 -37 -74 -70 -114 -92 -39 -20 -90 -60 -129 -101
-56 -58 -74 -70 -133 -89 -79 -25 -156 -81 -256 -183 -62 -64 -90 -101 -161
-222 -13 -22 -20 -62 -25 -145 -7 -122 -1 -150 65 -325 10 -27 22 -98 27 -156
8 -96 13 -113 44 -164 19 -31 55 -82 82 -113 26 -31 47 -63 47 -72 0 -26 52
-99 134 -190 62 -68 89 -109 138 -210 56 -112 71 -134 148 -210 62 -61 96
-106 124 -160 22 -41 67 -104 100 -140 34 -37 82 -104 108 -150 69 -125 146
-222 229 -289 41 -33 99 -92 129 -133 30 -40 75 -98 101 -128 26 -30 63 -82
82 -115 19 -33 52 -74 74 -91 21 -17 54 -58 73 -90 58 -100 88 -132 173 -183
95 -58 127 -88 157 -153 13 -29 39 -60 66 -80 45 -34 60 -63 50 -95 -10 -28
-149 -102 -214 -114 -67 -13 -158 -56 -227 -109 -28 -21 -86 -56 -130 -76 -44
-21 -129 -66 -190 -100 -64 -36 -178 -88 -273 -123 -197 -73 -241 -96 -326
-171 -36 -32 -75 -62 -88 -65 -31 -10 -177 -83 -208 -105 -51 -35 -200 -110
-271 -136 -95 -34 -134 -61 -189 -130 -29 -36 -63 -65 -95 -81 -27 -14 -64
-35 -80 -48 -17 -12 -62 -38 -101 -58 -53 -27 -86 -53 -129 -101 -45 -52 -73
-73 -133 -102 -54 -25 -94 -54 -135 -95 -32 -33 -100 -91 -152 -130 -56 -41
-117 -98 -149 -137 -30 -37 -77 -89 -106 -117 -30 -29 -64 -75 -81 -110 -23
-48 -42 -70 -99 -113 -38 -30 -91 -79 -117 -110 -27 -30 -94 -101 -150 -156
-97 -97 -104 -107 -167 -236 -36 -74 -80 -152 -99 -174 -39 -45 -65 -91 -108
-199 -17 -43 -47 -96 -66 -119 -19 -23 -40 -55 -47 -72 -8 -17 -37 -62 -66
-101 -61 -82 -71 -101 -95 -175 -26 -82 -87 -214 -144 -313 -29 -51 -63 -130
-82 -190 -17 -56 -41 -122 -54 -147 -12 -25 -28 -63 -35 -85 -7 -22 -23 -56
-35 -75 -32 -51 -61 -133 -99 -285 -40 -153 -49 -173 -111 -246 -25 -29 -54
-71 -64 -93 -28 -58 -59 -239 -66 -386 -7 -150 -28 -256 -62 -323 -33 -67
-101 -272 -125 -382 -19 -82 -21 -137 -25 -613 -5 -540 -4 -545 42 -1027 7
-82 21 -184 31 -225 9 -41 20 -93 24 -115 5 -22 16 -61 25 -85 55 -153 67
-208 81 -380 7 -96 14 -210 14 -253 0 -85 39 -285 69 -351 10 -22 43 -78 74
-123 39 -57 58 -97 65 -135 6 -29 20 -100 31 -158 11 -58 23 -132 27 -165 3
-33 12 -84 20 -114 13 -52 55 -134 74 -146 15 -9 36 -61 80 -200 55 -172 67
-199 117 -267 46 -62 80 -125 111 -203 82 -209 102 -243 179 -304 59 -46 94
-100 117 -181 8 -30 40 -93 70 -140 31 -47 56 -89 56 -94 0 -5 18 -32 39 -60
21 -28 55 -83 74 -121 26 -52 56 -90 113 -145 44 -41 96 -97 117 -123 21 -26
59 -58 85 -71 86 -44 129 -82 163 -145 21 -40 65 -93 128 -155 53 -51 113
-115 135 -140 21 -26 70 -69 110 -95 39 -27 89 -69 111 -93 23 -23 83 -68 134
-98 97 -57 119 -77 163 -153 21 -36 41 -53 100 -83 52 -28 94 -61 148 -117 41
-43 95 -89 120 -102 25 -13 78 -58 119 -100 84 -86 137 -126 209 -154 111 -44
143 -64 173 -107 17 -25 42 -56 57 -70 45 -42 143 -92 217 -110 92 -23 127
-38 167 -72 59 -51 96 -72 292 -172 107 -54 222 -116 256 -138 34 -22 107 -59
161 -83 77 -32 107 -50 131 -79 41 -52 120 -85 270 -115 68 -13 166 -33 218
-44 137 -29 340 -51 530 -57 208 -6 308 -20 390 -52 36 -14 90 -31 120 -38 30
-7 89 -25 130 -41 l75 -27 352 -4 c333 -3 359 -2 455 19 57 12 137 25 178 30
41 5 104 21 139 34 65 26 315 65 546 85 60 6 116 12 125 15 30 9 432 65 439
61 4 -3 54 -12 111 -20 172 -26 171 -25 299 -151 64 -63 141 -130 171 -151 30
-20 91 -71 135 -114 50 -49 103 -90 142 -109 68 -34 129 -88 155 -139 10 -18
38 -44 64 -60 48 -27 78 -54 167 -149 34 -36 74 -64 135 -94 57 -28 104 -60
138 -94 28 -28 84 -68 125 -89 91 -47 158 -87 317 -187 67 -43 153 -89 192
-104 55 -21 78 -36 110 -75 32 -38 68 -63 163 -114 67 -35 161 -76 208 -90 53
-16 107 -41 140 -65 75 -53 143 -86 219 -105 81 -21 278 -110 348 -158 29 -20
78 -44 110 -52 31 -9 71 -21 87 -26 272 -96 416 -138 615 -181 74 -16 196 -45
270 -65 282 -75 420 -99 630 -109 69 -3 195 -13 280 -22 128 -13 223 -15 550
-9 889 17 873 15 1290 130 89 25 196 48 370 81 41 8 95 26 120 39 192 102 263
134 347 155 43 10 109 33 147 51 38 17 133 51 210 77 78 25 163 57 190 70 27
14 81 35 120 48 39 13 107 39 151 58 128 55 217 86 265 93 25 3 70 16 100 28
30 13 77 31 105 41 32 12 74 41 120 84 94 89 141 124 196 148 25 11 74 49 110
84 37 37 90 77 124 94 40 20 88 58 145 116 50 50 114 103 155 127 39 23 87 62
110 89 68 82 213 206 296 253 44 25 88 53 99 63 45 39 118 85 162 101 46 18
86 59 141 146 14 23 43 45 82 65 94 47 103 55 161 142 38 56 70 91 102 112 62
40 111 92 157 169 26 44 55 77 94 104 31 23 83 75 115 116 35 43 82 89 113
109 61 39 76 59 104 139 26 75 48 109 99 159 23 22 55 65 70 96 16 31 40 69
53 85 14 16 41 58 62 92 20 34 64 91 98 125 45 46 70 82 92 133 77 182 110
239 177 309 40 41 83 99 104 140 20 39 52 93 70 122 19 28 34 54 34 57 0 3 18
46 40 95 22 50 49 132 60 183 11 51 36 139 56 195 29 82 47 114 88 162 33 38
60 82 74 123 30 82 51 278 52 478 0 85 7 209 15 275 8 66 22 182 30 257 8 76
24 184 36 240 18 90 21 147 25 438 3 361 -9 831 -26 945 -47 324 -77 630 -85
870 -7 187 -36 457 -57 516 -14 40 -50 109 -85 161 -37 55 -59 155 -83 370
-37 343 -57 431 -110 498 -42 53 -63 105 -100 245 -39 146 -56 182 -129 265
-31 36 -64 81 -73 100 -35 71 -79 181 -99 246 -17 55 -31 77 -80 126 -59 58
-95 117 -119 193 -28 89 -100 226 -142 272 -25 26 -68 93 -97 148 -69 130
-163 254 -346 452 -52 56 -111 133 -138 180 -51 88 -68 109 -139 163 -25 19
-72 70 -104 114 -48 65 -74 89 -158 145 -86 56 -105 74 -129 118 -21 39 -49
68 -111 115 -46 35 -103 88 -128 118 -24 30 -77 77 -116 103 -51 33 -83 63
-106 100 -19 29 -49 66 -68 83 -35 34 -180 114 -204 114 -29 0 -120 54 -179
105 -38 33 -90 65 -135 85 -41 17 -93 44 -115 60 -22 16 -71 50 -110 76 -38
26 -83 60 -98 75 -27 26 -42 35 -164 89 -29 13 -59 33 -67 45 -21 32 -164 112
-229 129 -30 8 -68 21 -84 29 -16 9 -58 23 -93 32 -87 22 -208 69 -267 103
-110 64 -252 114 -378 131 -38 6 -93 15 -122 20 -29 6 -92 15 -140 21 -101 12
-183 29 -199 41 -5 4 -44 13 -84 20 -51 8 -87 20 -115 39 -51 34 -136 64 -278
95 -62 14 -139 32 -172 40 -74 19 -142 29 -315 51 -117 14 -217 16 -750 11
-494 -4 -637 -8 -725 -21 -133 -19 -267 -49 -395 -86 -52 -15 -126 -36 -165
-46 -38 -10 -97 -30 -130 -46 -33 -15 -66 -28 -74 -28 -8 0 -50 -13 -95 -29
-141 -50 -209 -70 -311 -95 -140 -34 -269 -73 -303 -90 -16 -8 -65 -20 -108
-26 -44 -7 -93 -14 -111 -17 -51 -8 -95 13 -184 89 -46 39 -94 77 -107 86 -13
8 -37 43 -54 76 -17 34 -51 85 -77 114 -122 139 -169 186 -209 209 -23 14 -68
53 -100 88 -81 89 -199 188 -260 219 -42 21 -58 37 -80 78 -40 77 -278 312
-367 363 -39 22 -104 72 -145 111 -56 53 -98 82 -165 115 -71 34 -105 58 -160
114 -76 78 -116 98 -335 168 -52 16 -104 38 -115 48 -11 9 -40 25 -65 35 -25
10 -70 33 -100 50 -30 18 -89 45 -130 60 -94 33 -151 64 -215 114 -28 23 -74
47 -105 56 -30 9 -70 22 -88 30 -18 8 -70 21 -115 28 -45 8 -131 31 -190 51
-171 57 -283 84 -403 99 -62 8 -164 28 -228 45 -63 17 -162 37 -218 45 -57 8
-157 22 -223 31 -156 21 -212 34 -257 56 -53 27 -62 48 -48 115 6 30 9 68 5
84 -10 46 12 94 63 140 99 89 115 107 155 175 25 44 73 102 129 156 48 48 88
91 88 97 0 6 22 35 50 65 27 30 60 72 72 93 13 22 38 60 56 84 18 25 50 68 70
96 20 27 84 93 140 144 71 64 112 110 129 144 15 30 65 89 122 146 80 79 100
104 113 147 23 70 59 125 131 197 33 34 90 106 125 161 36 55 92 129 125 164
32 35 72 92 89 128 20 42 47 77 76 101 122 102 132 114 182 219 28 57 76 136
109 178 68 85 127 201 143 280 12 63 -3 244 -26 299 -21 49 -80 111 -140 144
-42 24 -60 43 -91 97 -31 52 -55 78 -110 117 -38 28 -106 86 -150 129 -52 50
-96 84 -125 95 -60 23 -148 81 -167 110 -21 33 -137 117 -211 154 -33 16 -88
36 -121 44 -34 8 -89 30 -123 49 -181 101 -506 137 -713 80z m-318 -265 c29
-12 83 -57 83 -68 0 -4 -22 -17 -50 -30 l-49 -23 -107 17 c-135 20 -172 49
-127 98 14 15 32 18 119 18 57 0 115 -5 131 -12z m694 -200 c48 -17 136 -75
153 -101 17 -26 23 -163 11 -249 -9 -68 2 -78 67 -58 39 11 64 32 114 93 33
39 81 44 209 18 124 -25 161 -44 256 -128 36 -33 80 -65 97 -71 18 -7 46 -17
62 -23 34 -13 60 -44 60 -70 0 -37 -59 -78 -148 -105 -176 -53 -310 -102 -376
-138 -32 -17 -65 -26 -95 -26 -25 -1 -64 -7 -86 -15 -56 -20 -72 -19 -100 10
-21 20 -25 34 -25 82 0 63 -14 117 -52 203 -14 30 -28 77 -31 104 -8 55 -18
66 -61 66 -23 0 -41 -12 -75 -49 -25 -27 -56 -52 -69 -56 -12 -3 -36 -24 -54
-46 -27 -33 -37 -39 -70 -39 -35 0 -41 4 -73 54 -21 33 -51 63 -78 79 -24 14
-62 46 -86 72 -49 53 -49 76 -2 125 15 16 35 47 44 67 9 21 25 59 35 85 25 58
45 71 157 102 101 27 166 32 216 14z m-1588 -18 c45 -11 109 -25 142 -31 53
-10 66 -17 105 -60 25 -27 76 -80 114 -117 60 -61 69 -74 73 -115 8 -66 0 -85
-61 -156 -30 -34 -57 -73 -60 -87 -13 -49 46 -114 102 -114 11 0 48 19 83 43
71 47 111 67 137 67 19 0 200 -77 249 -107 202 -119 210 -126 198 -162 -3 -9
-20 -24 -37 -34 -18 -10 -52 -44 -74 -76 -41 -56 -45 -59 -135 -90 -145 -49
-177 -55 -229 -42 -25 6 -76 15 -114 21 -107 17 -149 41 -186 110 -14 27 -68
60 -97 60 -12 0 -38 7 -57 16 -29 14 -45 15 -103 6 -121 -17 -215 7 -265 71
-36 45 -80 67 -133 67 -51 0 -72 -14 -86 -57 -6 -21 -22 -56 -35 -79 -14 -23
-24 -57 -24 -78 0 -52 -14 -72 -69 -100 -70 -36 -187 -49 -360 -40 -119 6
-158 11 -211 31 -36 14 -92 34 -124 44 -33 11 -68 27 -79 36 -26 25 -67 114
-67 150 0 41 26 64 106 96 54 21 89 46 162 112 51 47 101 85 112 85 11 0 34
-13 52 -29 51 -44 89 -60 164 -67 38 -3 93 -17 123 -30 105 -47 163 -44 199 9
37 56 30 89 -30 139 -130 109 -138 118 -138 158 0 33 8 45 73 106 39 38 90 91
111 118 43 53 110 89 190 101 26 4 72 16 104 26 73 23 76 23 175 -1z m-1641
-34 c57 -13 114 -28 125 -35 29 -15 55 -55 78 -116 10 -27 27 -63 37 -80 10
-16 18 -39 18 -50 0 -34 -45 -89 -107 -130 -32 -21 -92 -74 -133 -116 -91 -94
-113 -102 -290 -103 -137 -1 -175 9 -196 54 -7 14 -31 63 -53 110 -31 64 -50
91 -78 110 -57 39 -54 58 17 120 34 30 84 86 111 127 27 40 62 79 78 88 16 8
74 20 128 26 54 6 100 13 102 15 10 9 64 3 163 -20z m-1038 -569 c13 -13 27
-43 31 -67 5 -30 19 -56 46 -85 41 -44 49 -65 25 -65 -8 0 -16 -5 -18 -11 -6
-17 -141 -24 -193 -9 -40 11 -45 16 -45 42 0 16 8 45 19 66 10 20 25 56 32 80
12 42 40 72 67 72 7 0 23 -11 36 -23z m5014 -504 c28 -24 62 -114 62 -163 0
-32 -7 -46 -35 -75 -20 -19 -40 -35 -45 -35 -18 0 -128 -149 -135 -182 -15
-67 -107 -221 -166 -275 -30 -29 -77 -84 -103 -123 -29 -42 -74 -92 -114 -124
-83 -66 -101 -86 -140 -156 -17 -30 -62 -89 -100 -130 -45 -49 -81 -101 -105
-151 -31 -65 -44 -81 -94 -115 -73 -50 -145 -152 -183 -260 -39 -111 -90 -143
-186 -115 -18 5 -37 5 -48 -1 -30 -17 -56 0 -56 38 0 28 6 38 35 56 47 31 62
67 70 168 11 135 33 241 60 281 13 20 51 61 84 90 33 29 67 69 75 88 15 40 39
183 57 341 23 210 37 255 114 365 47 68 63 105 97 220 18 64 31 87 63 118 82
80 212 122 410 132 77 3 169 10 205 14 113 14 156 12 178 -6z m-4978 -67 c93
-34 214 -103 270 -154 32 -29 76 -66 97 -81 41 -29 56 -50 131 -176 33 -54 64
-92 100 -120 63 -48 88 -87 143 -224 49 -124 86 -189 143 -252 26 -28 48 -67
59 -102 14 -45 30 -67 83 -116 35 -34 69 -61 74 -61 14 0 47 -61 70 -130 26
-80 59 -137 106 -187 20 -21 45 -55 55 -75 10 -20 30 -53 44 -74 14 -20 30
-55 36 -78 19 -69 49 -118 119 -191 86 -90 159 -230 167 -320 3 -40 13 -73 30
-98 31 -49 27 -66 -22 -94 -47 -26 -85 -29 -124 -8 -31 15 -71 86 -71 124 0
32 -28 75 -61 95 -15 9 -71 63 -125 121 -53 58 -125 125 -159 150 -34 25 -83
75 -109 110 -26 35 -65 81 -88 102 -69 64 -74 71 -151 201 -72 121 -97 150
-179 205 -18 13 -46 46 -63 75 -16 28 -43 75 -60 104 -23 40 -49 66 -108 106
-55 38 -93 74 -132 127 -29 40 -66 81 -80 92 -67 47 -89 71 -126 139 -25 46
-61 92 -94 122 -29 26 -77 82 -105 126 -49 72 -68 94 -162 181 -18 17 -50 55
-71 85 -22 30 -66 74 -98 98 -33 23 -63 49 -66 58 -11 31 20 63 101 103 l81
41 150 -4 c106 -2 163 -8 195 -20z m3491 -249 c49 -20 76 -52 84 -96 10 -59
-22 -176 -77 -286 -76 -152 -102 -233 -132 -405 -16 -90 -56 -162 -140 -252
-26 -27 -53 -71 -65 -103 -25 -67 -57 -215 -66 -305 -8 -85 -20 -122 -45 -138
-29 -18 -65 9 -84 61 -60 172 -77 233 -86 307 -11 93 -45 277 -61 325 -5 17
-18 88 -30 159 -17 111 -19 160 -14 360 2 127 5 234 5 238 0 13 44 49 80 67
48 24 178 59 280 76 109 17 302 13 351 -8z m-1536 -32 c186 -14 296 -38 345
-75 33 -25 39 -77 50 -398 5 -149 11 -276 14 -281 3 -5 7 -179 7 -388 1 -323
-1 -390 -16 -463 -9 -47 -21 -93 -26 -102 -17 -31 -57 -21 -108 27 -27 25 -81
61 -120 80 -77 38 -103 68 -123 143 -7 31 -28 62 -69 105 -32 34 -72 86 -90
117 -18 30 -44 68 -57 84 -12 16 -32 46 -43 67 -10 21 -45 67 -77 101 -80 88
-101 119 -161 235 -35 69 -67 115 -95 140 -23 21 -60 67 -81 103 -50 84 -130
196 -171 240 -17 19 -40 51 -49 70 -9 19 -31 49 -47 66 -43 46 -36 72 32 108
48 26 68 30 170 36 155 8 495 1 715 -15z m945 -2965 c166 -13 277 -34 352 -66
32 -13 126 -38 210 -55 216 -44 234 -47 355 -54 59 -4 153 -13 208 -21 55 -8
149 -19 209 -25 167 -14 290 -36 352 -64 31 -14 84 -32 118 -41 34 -8 90 -26
125 -40 35 -14 104 -31 155 -39 152 -22 212 -41 285 -87 25 -15 49 -28 54 -28
5 0 41 -20 81 -44 78 -48 144 -74 215 -83 52 -6 116 -38 170 -84 86 -73 181
-134 246 -159 39 -14 90 -41 114 -58 24 -18 50 -32 57 -32 7 0 34 -16 60 -36
26 -20 75 -49 109 -64 39 -17 89 -53 131 -92 92 -85 214 -183 274 -218 26 -15
90 -63 141 -107 61 -51 115 -87 154 -102 74 -30 97 -50 138 -121 17 -30 68
-94 114 -143 46 -48 83 -92 83 -97 0 -18 64 -82 120 -120 32 -21 88 -73 125
-115 54 -60 85 -85 149 -118 76 -39 83 -46 116 -107 20 -37 69 -100 115 -147
43 -46 93 -105 110 -131 46 -73 67 -97 110 -124 62 -40 91 -77 123 -154 16
-40 58 -116 94 -170 35 -55 68 -106 71 -114 4 -8 25 -42 47 -75 22 -33 52 -82
67 -110 16 -27 53 -75 84 -105 31 -31 60 -67 64 -80 4 -14 26 -68 50 -120 23
-52 50 -117 60 -145 10 -27 38 -70 61 -96 59 -62 69 -87 149 -384 36 -134 88
-300 123 -390 37 -96 66 -177 81 -226 16 -53 42 -220 51 -339 8 -96 32 -294
46 -380 12 -68 55 -236 76 -290 56 -149 87 -248 88 -275 0 -16 7 -55 15 -85
65 -242 88 -575 65 -975 -6 -99 -14 -274 -20 -390 -7 -169 -13 -228 -33 -305
-46 -175 -58 -214 -76 -244 -25 -41 -108 -370 -131 -516 -43 -280 -105 -529
-151 -605 -9 -16 -23 -52 -29 -80 -7 -27 -29 -93 -50 -145 -20 -52 -56 -158
-80 -235 -56 -185 -77 -229 -138 -299 -44 -50 -56 -74 -87 -169 -48 -150 -78
-202 -146 -253 -70 -54 -232 -236 -282 -317 -20 -34 -49 -93 -64 -132 -21 -54
-43 -88 -97 -147 -39 -42 -93 -104 -120 -138 -27 -34 -72 -80 -100 -102 -28
-22 -57 -50 -65 -62 -33 -50 -82 -91 -168 -142 -62 -36 -106 -71 -135 -106
-62 -75 -106 -116 -164 -154 -29 -18 -62 -47 -75 -65 -41 -54 -84 -93 -143
-129 -31 -19 -73 -56 -92 -82 -50 -67 -95 -103 -159 -127 -31 -12 -70 -28 -86
-37 -34 -17 -183 -129 -247 -185 -24 -21 -67 -46 -95 -55 -81 -26 -118 -48
-167 -99 -53 -55 -74 -67 -177 -100 -133 -42 -160 -34 -291 91 -134 127 -155
183 -105 276 34 63 147 150 276 212 50 25 112 61 137 81 245 192 270 215 342
319 10 13 64 60 120 104 57 44 135 108 174 143 42 37 109 83 159 109 82 42 93
52 177 155 50 61 110 131 134 157 55 59 115 150 137 208 18 49 71 117 128 168
32 27 97 128 142 218 9 17 39 51 67 74 57 48 80 88 135 235 45 122 48 128 96
190 55 73 98 176 120 288 23 116 40 162 78 202 78 82 117 175 141 335 24 155
95 362 160 465 25 41 50 189 50 305 0 105 22 247 69 445 17 72 41 171 53 220
11 50 27 102 34 116 17 35 50 219 63 360 32 339 -14 983 -78 1104 -12 21 -21
49 -21 61 0 12 -15 69 -34 128 -33 102 -61 245 -87 446 -19 152 -45 264 -77
327 -28 55 -60 157 -112 353 -55 212 -104 336 -170 428 -44 61 -62 112 -84
237 -16 92 -57 183 -120 265 -62 80 -93 131 -107 181 -10 31 -35 66 -85 119
-60 63 -81 96 -137 211 -48 101 -75 144 -104 168 -21 18 -48 41 -59 52 -12 10
-48 67 -80 125 -40 73 -72 118 -101 143 -49 40 -119 126 -153 185 -12 22 -45
68 -73 103 -60 75 -302 316 -396 394 -35 30 -88 75 -117 102 -30 26 -58 47
-62 47 -4 0 -34 22 -67 50 -38 32 -91 63 -149 87 -64 27 -107 53 -150 91 -34
30 -97 72 -141 93 -72 36 -122 67 -270 166 -48 32 -231 100 -360 132 -86 22
-121 40 -201 101 -35 27 -77 53 -96 59 -40 12 -295 67 -358 76 -94 14 -213 49
-248 73 -102 70 -308 119 -637 152 -246 25 -408 54 -520 95 -114 42 -171 52
-321 60 -91 5 -142 3 -205 -9 -197 -36 -343 -55 -484 -60 -82 -4 -168 -10
-190 -16 -42 -9 -125 -19 -450 -50 -191 -18 -271 -31 -415 -66 -81 -20 -92
-26 -160 -85 -64 -56 -73 -59 -233 -100 -143 -36 -145 -37 -222 -106 -70 -63
-140 -105 -210 -126 -107 -32 -224 -90 -347 -173 -112 -75 -138 -99 -206 -182
-58 -72 -90 -102 -128 -122 -67 -33 -166 -105 -223 -160 -45 -44 -73 -65 -228
-168 -52 -34 -87 -65 -101 -90 -20 -36 -55 -67 -171 -154 -27 -21 -56 -56 -76
-93 -23 -41 -46 -68 -75 -87 -60 -38 -77 -55 -121 -120 -22 -32 -63 -79 -91
-105 -57 -54 -217 -263 -250 -326 -29 -58 -55 -93 -119 -163 -38 -42 -62 -80
-78 -123 -18 -50 -39 -80 -105 -150 -72 -75 -92 -105 -154 -228 -39 -78 -90
-172 -113 -210 -23 -37 -50 -81 -59 -98 -26 -43 -87 -212 -95 -262 -4 -27 -27
-74 -62 -125 -30 -46 -70 -117 -90 -158 -19 -41 -59 -127 -88 -190 -98 -208
-126 -291 -136 -403 -9 -94 -25 -190 -63 -372 -8 -38 -19 -124 -26 -190 -6
-66 -22 -196 -35 -290 -13 -93 -29 -217 -35 -275 -6 -58 -15 -141 -21 -184
-12 -103 -11 -908 1 -1096 7 -101 17 -169 33 -225 13 -44 30 -111 36 -150 7
-38 23 -107 37 -153 13 -46 28 -127 34 -180 5 -53 17 -133 25 -177 9 -44 19
-114 24 -155 8 -72 24 -116 61 -170 37 -53 58 -98 74 -162 9 -37 25 -92 36
-123 11 -32 26 -95 34 -140 18 -102 64 -212 118 -284 32 -42 47 -77 65 -146
13 -49 38 -112 55 -140 17 -27 49 -81 70 -120 22 -38 50 -81 63 -95 13 -14 44
-69 70 -124 34 -73 60 -114 105 -160 40 -42 71 -87 93 -136 20 -43 62 -107 98
-150 109 -128 139 -167 195 -257 35 -55 81 -112 125 -151 48 -45 79 -83 100
-126 35 -70 59 -98 109 -128 53 -32 77 -56 135 -134 54 -72 62 -78 190 -134
61 -27 116 -66 240 -170 53 -44 117 -92 143 -107 26 -14 70 -48 97 -73 36 -33
75 -56 132 -78 45 -18 86 -32 91 -32 25 0 126 -49 201 -97 128 -83 266 -127
476 -153 49 -6 115 -20 145 -29 30 -10 68 -22 83 -25 16 -4 51 -27 77 -52 39
-37 72 -54 157 -86 107 -39 170 -53 371 -83 116 -17 223 -50 327 -100 169 -81
469 -106 1240 -104 628 2 746 0 815 -10 36 -6 87 -13 113 -16 59 -8 103 -44
145 -118 16 -29 42 -64 58 -77 79 -70 101 -99 113 -146 7 -27 23 -70 37 -96
13 -26 24 -59 24 -73 0 -34 -74 -106 -137 -135 -27 -12 -79 -37 -118 -55 -71
-34 -168 -52 -445 -85 -235 -28 -319 -40 -371 -53 -130 -35 -213 -40 -574 -41
-309 0 -371 3 -435 18 -144 34 -276 54 -435 66 -271 20 -457 64 -645 152 -47
22 -125 53 -175 70 -49 16 -121 46 -160 67 -77 42 -373 145 -445 155 -91 13
-181 57 -255 123 -68 62 -139 102 -240 139 -32 11 -71 38 -110 75 -33 31 -89
75 -125 97 -42 25 -81 60 -111 98 -35 46 -64 69 -130 106 -88 50 -127 69 -183
92 -24 10 -42 28 -57 58 -41 80 -82 128 -156 179 -53 37 -85 68 -111 108 -19
31 -78 101 -129 157 -52 55 -108 125 -125 155 -47 83 -137 187 -240 280 -101
90 -127 120 -194 219 -24 36 -82 119 -128 185 -47 66 -115 165 -152 220 -36
55 -86 117 -109 137 -23 21 -66 77 -95 125 -28 49 -71 108 -95 133 -54 57
-135 186 -190 305 -23 51 -67 124 -96 163 -34 45 -83 133 -134 243 -61 132
-92 185 -131 228 -27 31 -57 72 -66 91 -53 117 -77 180 -83 220 -14 83 -73
248 -133 366 -74 148 -96 235 -122 489 -13 127 -44 284 -76 383 -63 194 -77
277 -105 584 -12 129 -2 539 21 843 10 132 48 453 55 464 4 7 38 205 74 436
12 72 21 154 21 184 0 51 35 217 66 308 7 24 31 78 53 121 22 44 65 144 95
223 72 185 106 254 159 316 45 52 96 171 115 268 19 99 44 193 93 346 37 118
59 169 89 212 22 30 60 107 84 169 73 190 113 270 165 337 28 35 58 87 67 115
17 51 63 121 169 262 33 43 78 106 99 139 91 139 111 166 166 228 37 42 66 87
80 124 26 71 30 75 96 119 33 22 63 53 80 82 43 73 113 154 177 203 35 26 72
67 93 101 32 52 125 148 144 148 5 0 22 22 38 49 17 26 47 59 69 71 21 13 47
32 59 42 11 10 47 29 80 41 49 19 64 31 91 72 39 59 98 100 172 121 147 40
171 54 280 156 89 84 112 101 160 115 37 10 72 30 102 58 47 41 161 121 209
145 14 7 66 39 115 71 50 31 116 74 147 93 31 20 82 45 113 56 80 27 161 80
225 145 58 59 116 87 205 100 28 4 106 25 175 46 68 22 130 39 137 39 7 0 55
24 106 53 87 50 216 105 387 166 41 15 99 43 128 63 58 41 66 42 287 59 83 6
152 13 155 16 8 9 551 -5 700 -17z m-222 -1440 c48 -6 119 -18 157 -26 39 -8
91 -14 116 -14 26 0 98 -9 160 -19 148 -26 267 -38 469 -51 161 -10 250 -19
415 -42 44 -6 116 -14 160 -19 105 -11 457 -86 605 -129 36 -10 106 -26 155
-36 105 -20 200 -51 303 -100 40 -19 78 -34 85 -34 7 0 37 -12 67 -26 30 -14
121 -41 202 -59 194 -45 336 -113 433 -210 36 -36 70 -57 115 -74 59 -22 128
-62 162 -93 7 -7 32 -25 55 -40 45 -30 160 -177 209 -267 15 -29 48 -69 72
-89 79 -64 90 -117 43 -191 -17 -25 -34 -66 -40 -91 -13 -59 -43 -83 -205
-164 -78 -39 -148 -82 -174 -106 -23 -22 -73 -60 -110 -85 -92 -61 -115 -82
-151 -141 -17 -28 -50 -64 -72 -79 -66 -43 -128 -105 -172 -170 -50 -74 -55
-78 -143 -119 -41 -20 -85 -49 -105 -71 -58 -66 -113 -119 -152 -148 -21 -15
-59 -60 -85 -100 -25 -40 -74 -99 -108 -132 -33 -33 -76 -85 -96 -115 -19 -30
-69 -86 -110 -123 -94 -84 -151 -157 -172 -222 -11 -34 -34 -69 -74 -112 -55
-57 -99 -134 -168 -288 -19 -43 -56 -94 -119 -166 -22 -25 -49 -70 -59 -100
-13 -37 -34 -68 -66 -99 -26 -25 -65 -79 -87 -120 -22 -41 -50 -91 -62 -111
-27 -45 -84 -213 -101 -294 -17 -83 -40 -123 -98 -172 -62 -53 -88 -106 -107
-219 -20 -116 -69 -233 -122 -293 -45 -51 -96 -164 -108 -241 -24 -153 -60
-261 -137 -415 -30 -59 -68 -187 -89 -295 -5 -30 -14 -172 -19 -315 -11 -316
-46 -572 -95 -687 -8 -21 -15 -55 -15 -76 0 -21 -4 -63 -10 -93 -35 -197 -45
-369 -44 -739 1 -367 10 -529 38 -700 8 -47 19 -119 26 -160 6 -41 20 -104 30
-140 31 -107 50 -240 61 -417 11 -191 33 -346 59 -416 10 -26 43 -89 73 -140
59 -98 75 -154 112 -391 9 -55 25 -116 36 -136 27 -48 22 -68 -26 -102 -71
-49 -182 -58 -694 -58 -673 1 -872 14 -1136 77 -108 25 -145 36 -235 67 -65
22 -169 43 -300 60 -63 9 -155 29 -205 45 -181 60 -239 82 -254 95 -9 7 -43
23 -76 36 -33 12 -78 30 -100 40 -22 9 -51 21 -65 25 -50 15 -214 108 -267
151 -82 67 -125 92 -200 115 -172 54 -179 58 -267 143 -47 44 -110 104 -142
131 -31 28 -66 70 -79 95 -27 53 -49 74 -127 123 -33 21 -73 58 -94 87 -20 28
-63 71 -96 96 -42 32 -79 76 -128 150 -52 76 -80 109 -108 123 -67 34 -118 92
-141 163 -14 42 -37 81 -67 116 -49 56 -131 170 -192 266 -20 32 -62 86 -93
120 -87 96 -118 140 -146 208 -17 44 -44 82 -87 128 -67 70 -89 119 -121 269
-10 49 -39 115 -95 223 -44 84 -87 171 -94 193 -8 22 -24 108 -35 190 -33 230
-64 375 -105 493 -14 37 -27 83 -31 102 -3 19 -15 62 -25 95 -41 138 -45 202
-43 840 1 379 6 644 13 699 7 56 24 122 46 179 20 50 40 118 45 152 5 33 18
103 29 155 25 122 67 378 75 455 7 64 49 268 67 324 6 19 28 61 49 94 22 33
39 66 39 73 0 7 13 46 30 87 16 42 30 84 30 94 0 10 12 56 27 102 24 76 33 91
89 146 52 51 65 71 79 120 10 33 30 83 45 110 15 28 33 74 40 103 9 40 25 68
65 114 36 42 65 89 89 148 25 58 55 109 94 155 83 99 177 234 235 335 14 25
51 73 82 108 37 40 67 87 84 127 51 124 228 323 335 377 54 27 91 62 131 125
19 28 73 89 120 135 57 54 97 103 116 141 31 60 174 221 238 268 20 15 68 40
106 55 79 31 103 44 160 89 36 28 352 185 373 185 5 0 60 32 123 72 286 179
455 266 554 288 28 5 95 25 150 44 70 24 149 40 263 56 89 12 188 30 220 41
219 76 416 93 690 59z m9397 -919 c151 -14 325 -54 375 -86 19 -12 78 -37 130
-55 52 -18 103 -37 113 -42 32 -17 218 -69 313 -88 65 -13 106 -27 136 -48 63
-43 108 -67 153 -82 53 -17 166 -74 235 -118 79 -50 218 -118 270 -132 25 -6
94 -28 153 -47 108 -36 109 -36 195 -122 71 -70 99 -91 150 -110 49 -19 84
-44 161 -115 54 -50 128 -113 164 -139 37 -27 67 -52 67 -57 0 -5 57 -50 128
-101 78 -57 173 -139 247 -213 67 -67 137 -134 158 -149 20 -15 55 -55 78 -88
22 -33 64 -83 93 -112 55 -55 192 -216 240 -282 17 -22 69 -80 117 -130 68
-70 95 -106 120 -160 17 -38 46 -86 64 -105 36 -38 93 -139 123 -216 41 -108
97 -186 196 -273 52 -47 101 -98 108 -115 7 -17 38 -59 69 -92 60 -65 78 -94
99 -159 21 -66 86 -205 138 -295 27 -47 83 -155 125 -240 42 -85 99 -186 127
-225 74 -101 78 -112 111 -268 16 -78 39 -167 51 -197 52 -132 100 -233 137
-287 42 -63 66 -133 76 -228 14 -133 49 -304 76 -370 15 -38 31 -83 35 -100 3
-16 17 -55 30 -85 13 -30 33 -107 45 -170 28 -150 35 -540 20 -1140 -11 -419
-23 -562 -54 -665 -17 -57 -60 -231 -87 -354 -24 -105 -66 -401 -80 -550 -10
-123 -16 -137 -141 -367 -21 -39 -48 -106 -60 -150 -23 -85 -83 -286 -95 -319
-4 -11 -26 -51 -49 -90 -55 -92 -102 -193 -132 -285 -31 -93 -78 -194 -132
-285 -23 -38 -53 -108 -67 -155 -26 -88 -83 -240 -112 -298 -10 -19 -45 -59
-80 -89 -35 -31 -96 -95 -135 -142 -39 -47 -98 -114 -129 -149 -32 -35 -72
-91 -89 -125 -17 -34 -53 -85 -80 -114 -29 -31 -63 -84 -87 -135 -28 -59 -59
-105 -110 -162 -40 -43 -72 -82 -72 -86 0 -5 -21 -18 -47 -31 -27 -12 -61 -32
-78 -44 -16 -12 -58 -36 -92 -54 -43 -23 -75 -50 -106 -90 -34 -43 -65 -68
-133 -106 -52 -29 -119 -78 -162 -119 -41 -39 -107 -91 -147 -116 -41 -25
-118 -76 -172 -113 -72 -49 -123 -76 -188 -98 -102 -33 -187 -82 -261 -148
-61 -55 -221 -144 -298 -166 -55 -16 -76 -29 -135 -84 -18 -17 -52 -35 -74
-41 -23 -6 -80 -27 -127 -46 -47 -20 -113 -46 -148 -59 -37 -14 -82 -41 -113
-69 -56 -50 -57 -51 -274 -100 -161 -37 -174 -45 -217 -124 -31 -57 -134 -101
-293 -123 -93 -12 -342 -73 -376 -91 -14 -7 -38 -22 -54 -34 -59 -41 -120 -61
-195 -66 -41 -3 -106 -12 -145 -22 -242 -57 -325 -80 -365 -98 -33 -15 -77
-23 -170 -28 -71 -4 -143 -15 -166 -23 -38 -15 -110 -24 -389 -48 -349 -30
-1005 -27 -1235 5 -58 9 -136 16 -175 16 -46 0 -84 7 -112 19 -55 25 -394 116
-508 136 -180 32 -235 47 -274 75 -82 60 -195 98 -400 135 -147 27 -226 46
-248 61 -13 8 -34 36 -47 62 -39 76 -87 111 -211 152 -38 12 -74 26 -80 30 -5
4 -35 15 -65 23 -39 11 -67 28 -94 56 -23 24 -59 47 -85 56 -25 8 -59 24 -76
36 -16 11 -59 35 -95 54 -36 18 -76 44 -89 58 -13 14 -49 36 -80 48 -31 13
-99 51 -151 86 -77 50 -104 76 -145 133 -48 67 -55 73 -160 125 -123 61 -131
67 -163 112 -13 18 -47 43 -78 58 -31 15 -70 40 -87 56 -92 86 -106 103 -112
130 -7 31 -31 52 -75 64 -46 13 -90 56 -121 117 -35 70 -73 109 -132 139 -75
39 -126 79 -158 126 -18 26 -54 70 -79 98 -26 29 -63 81 -81 116 -21 38 -61
90 -104 131 -38 37 -99 109 -135 160 -39 55 -86 108 -116 131 -31 22 -58 53
-67 75 -26 59 -104 262 -123 317 -24 73 -78 177 -104 200 -12 11 -33 41 -46
67 -13 26 -37 62 -52 80 -16 18 -42 56 -57 83 -16 28 -48 77 -71 110 -41 59
-124 214 -124 233 0 5 -20 40 -45 77 -24 38 -52 93 -61 124 -9 30 -26 76 -39
101 -12 25 -35 83 -49 130 -41 130 -105 300 -133 350 -69 124 -119 336 -143
605 -6 72 -15 164 -20 205 -5 41 -12 111 -16 154 -8 100 -52 282 -99 411 -20
55 -49 155 -66 223 l-30 122 11 198 c14 260 26 399 38 447 6 22 15 79 21 127
6 48 26 134 45 192 19 59 40 134 46 169 6 34 19 103 30 152 23 108 60 435 60
521 0 106 42 277 95 384 53 106 52 103 101 290 54 205 121 403 156 455 17 26
50 93 73 149 23 56 60 127 82 157 22 30 60 90 83 134 24 44 46 85 50 90 5 6
29 51 55 100 26 50 67 117 92 150 151 209 160 223 193 335 28 93 43 122 101
185 25 28 60 79 78 114 38 76 70 122 145 211 30 36 92 113 137 172 70 93 88
110 128 124 33 12 72 43 137 108 50 50 118 116 151 147 33 30 74 81 93 113 18
33 45 68 59 80 71 59 161 152 171 177 9 20 29 37 69 55 241 113 261 125 313
188 66 79 101 110 166 148 29 17 79 56 110 88 68 67 99 85 167 95 28 4 72 16
98 26 71 28 110 25 152 -12 54 -48 185 -246 185 -279 0 -38 -38 -80 -115 -129
-40 -25 -79 -61 -105 -95 -22 -30 -52 -63 -67 -73 -26 -17 -64 -55 -243 -238
-42 -44 -88 -100 -100 -125 -32 -64 -62 -98 -143 -160 -57 -44 -79 -70 -107
-122 -45 -84 -61 -102 -135 -145 -63 -36 -88 -61 -132 -128 -14 -22 -53 -69
-87 -105 -34 -36 -85 -103 -113 -150 -28 -47 -66 -98 -84 -115 -39 -37 -137
-184 -163 -245 -58 -138 -76 -169 -111 -196 -84 -65 -104 -87 -121 -132 -79
-219 -103 -264 -169 -328 -43 -42 -76 -87 -100 -134 -19 -38 -59 -101 -88
-138 -53 -69 -64 -90 -112 -222 -37 -99 -70 -164 -144 -287 -34 -56 -66 -115
-70 -130 -9 -27 -43 -143 -94 -313 -14 -47 -38 -119 -55 -160 -16 -41 -46
-122 -65 -180 -19 -58 -49 -141 -67 -185 -22 -55 -39 -128 -55 -236 -42 -270
-55 -489 -57 -974 -3 -487 5 -617 58 -960 46 -299 64 -387 105 -514 17 -53 37
-136 44 -186 7 -49 37 -187 68 -305 30 -118 65 -273 77 -345 12 -71 34 -164
50 -205 15 -41 34 -97 41 -125 7 -27 25 -71 41 -96 30 -49 56 -129 114 -344
40 -151 70 -219 123 -290 46 -59 72 -110 96 -185 25 -80 76 -166 145 -244 53
-62 64 -81 90 -167 30 -96 32 -99 100 -160 38 -34 82 -82 96 -108 64 -109 155
-239 198 -281 26 -25 72 -82 103 -128 64 -95 81 -110 218 -183 79 -43 120 -73
193 -145 54 -54 117 -104 151 -123 56 -30 83 -55 163 -153 26 -32 62 -58 126
-91 49 -26 124 -72 167 -102 43 -31 128 -81 189 -112 80 -40 132 -74 188 -124
42 -38 93 -76 113 -85 32 -13 141 -40 305 -75 75 -17 108 -34 155 -81 32 -32
66 -50 155 -84 63 -24 121 -43 129 -44 35 -1 140 -46 189 -81 69 -49 178 -84
317 -104 245 -34 293 -51 359 -131 62 -74 99 -92 227 -113 201 -33 549 -44
1259 -38 389 3 677 9 710 16 30 5 116 15 190 21 152 12 163 16 270 115 44 40
69 55 106 63 99 21 232 41 349 51 169 15 207 27 301 97 76 57 90 63 232 102
193 54 220 66 233 100 22 59 68 91 184 128 134 42 182 70 285 163 44 39 96 79
117 87 61 26 155 85 198 125 22 20 76 57 120 82 44 24 105 59 135 78 52 32
342 315 404 395 21 26 56 49 123 81 90 42 95 46 138 112 31 49 57 77 90 96 58
35 105 90 144 171 17 36 50 84 74 107 61 59 160 193 224 301 29 50 75 113 102
141 26 27 73 88 104 135 34 52 75 99 104 121 32 24 60 57 80 96 19 35 58 83
95 117 116 106 165 158 179 184 33 65 84 138 138 196 65 70 79 94 106 176 39
118 192 415 249 482 18 20 38 50 46 65 8 15 29 52 48 82 63 100 87 198 117
456 3 33 19 112 35 175 16 63 36 167 45 230 10 63 19 119 22 124 3 4 12 106
19 225 7 119 19 270 25 336 17 176 16 602 0 790 -10 107 -15 316 -16 630 -1
312 -5 485 -13 515 -6 25 -16 95 -22 155 -6 61 -18 139 -26 175 -8 36 -28 126
-44 200 -48 223 -78 362 -89 413 -6 26 -34 89 -62 140 -82 150 -108 208 -122
277 -9 45 -34 101 -80 182 -39 68 -75 147 -87 189 -11 39 -35 113 -54 163 -19
50 -37 100 -40 111 -3 12 -29 48 -57 80 -54 64 -79 106 -99 170 -43 136 -101
236 -184 318 -31 30 -71 79 -89 109 -70 114 -117 175 -169 217 -30 23 -74 72
-99 108 -27 40 -59 74 -85 89 -50 29 -109 92 -145 155 -22 37 -41 52 -118 94
-66 35 -104 62 -129 94 -55 68 -335 333 -463 438 -38 31 -69 61 -69 65 0 17
-184 129 -234 142 -28 8 -73 20 -101 27 -31 8 -92 41 -160 88 -114 78 -216
127 -326 156 -73 20 -178 70 -258 123 -84 55 -177 83 -310 92 -211 16 -267 32
-409 119 -54 33 -117 67 -140 75 -23 8 -106 20 -185 26 -159 11 -225 22 -311
51 -81 27 -105 41 -146 84 -19 20 -47 43 -62 51 -47 25 -160 43 -365 59 -199
15 -319 25 -533 45 -330 31 -628 29 -925 -4 -201 -23 -532 -38 -735 -34 -155
3 -179 5 -210 24 -43 25 -80 78 -80 114 0 15 -11 58 -25 94 -24 64 -24 69 -9
94 36 59 257 206 359 238 41 13 139 18 540 25 270 5 497 11 505 13 35 10 1680
-2 1805 -13z m-1334 -1026 c47 -8 117 -26 155 -39 38 -13 110 -29 159 -35 50
-7 126 -19 170 -26 44 -8 161 -19 260 -25 203 -13 269 -27 366 -75 145 -73
235 -104 363 -125 69 -11 141 -20 160 -20 53 0 201 -67 259 -117 97 -83 246
-140 454 -173 86 -14 220 -70 301 -127 34 -24 88 -56 120 -70 76 -35 151 -84
213 -139 28 -24 71 -55 97 -68 130 -64 260 -147 332 -209 25 -22 65 -48 90
-59 116 -51 129 -60 175 -124 27 -36 67 -76 93 -92 69 -42 158 -128 203 -194
22 -32 53 -68 70 -80 17 -13 60 -67 95 -120 62 -94 72 -105 144 -151 24 -15
41 -38 54 -72 59 -152 70 -170 192 -337 40 -53 91 -132 114 -175 24 -43 67
-103 96 -134 34 -36 57 -71 65 -100 7 -24 39 -105 71 -179 46 -106 69 -145
105 -182 38 -38 50 -61 71 -130 28 -95 77 -273 92 -335 5 -24 30 -89 55 -145
57 -133 86 -257 120 -519 8 -63 27 -169 41 -235 45 -208 55 -284 64 -484 11
-253 12 -1500 0 -1610 -12 -120 -48 -336 -64 -395 -15 -50 -24 -107 -71 -421
-14 -94 -30 -187 -36 -205 -6 -19 -14 -61 -19 -93 -7 -48 -20 -75 -60 -133
-33 -46 -62 -105 -80 -159 -19 -54 -43 -103 -66 -131 -60 -73 -143 -203 -150
-237 -10 -47 -53 -174 -68 -204 -8 -15 -38 -57 -67 -94 -75 -93 -106 -138
-173 -248 -32 -52 -76 -114 -98 -137 -23 -23 -60 -79 -83 -125 -35 -71 -52
-92 -113 -141 -56 -46 -83 -78 -123 -144 -27 -47 -56 -91 -62 -97 -7 -6 -37
-32 -68 -58 -33 -28 -73 -75 -97 -115 -22 -37 -63 -87 -91 -111 -28 -24 -77
-78 -110 -121 -33 -43 -94 -109 -136 -147 -42 -38 -131 -124 -198 -190 -125
-125 -164 -152 -252 -173 -76 -19 -162 -69 -235 -137 -60 -55 -195 -150 -270
-189 -17 -9 -63 -47 -103 -84 -95 -89 -146 -120 -219 -132 -87 -14 -127 -30
-230 -92 -93 -56 -139 -72 -396 -141 -77 -21 -106 -35 -175 -85 -51 -37 -103
-65 -137 -75 -59 -17 -364 -66 -410 -66 -52 0 -205 -51 -302 -100 -61 -31
-138 -60 -205 -77 l-108 -28 -790 1 c-939 1 -937 1 -1112 88 -123 62 -170 76
-338 106 -327 58 -334 60 -400 136 -41 48 -65 64 -182 120 -150 72 -262 140
-310 189 -19 20 -46 35 -69 40 -61 11 -111 42 -182 111 -37 36 -94 79 -127 96
-33 17 -73 40 -90 52 -16 13 -54 35 -83 51 -29 16 -73 53 -98 82 -38 44 -67
64 -155 109 -100 50 -119 64 -228 173 -82 82 -132 141 -161 192 -24 41 -63 95
-87 121 -52 57 -56 98 -19 180 13 29 29 68 36 85 21 56 119 145 211 193 46 24
109 60 139 80 30 21 75 47 99 60 25 12 90 66 145 120 56 54 119 107 141 118
47 24 90 68 133 137 41 66 77 99 132 123 60 26 258 159 270 182 5 10 45 48 89
84 44 37 93 89 112 118 18 29 47 69 65 88 18 19 43 58 54 85 15 34 50 78 112
140 50 50 182 184 294 300 179 183 208 219 244 290 50 99 49 96 140 230 41 61
90 139 111 175 55 99 107 181 128 204 54 60 112 200 167 403 22 82 67 173 113
228 24 28 76 116 116 196 66 133 74 154 80 225 7 89 13 110 49 208 14 38 26
78 26 90 0 12 16 86 36 165 29 119 38 181 49 350 21 297 27 332 66 376 10 11
29 56 43 100 56 177 78 508 80 1170 1 496 3 472 -58 755 -14 63 -25 132 -26
153 0 22 -14 78 -30 126 -34 97 -60 231 -60 306 0 48 -25 258 -56 475 -8 58
-23 140 -34 182 -11 43 -20 90 -20 105 0 16 -11 52 -25 80 -13 29 -29 87 -35
130 -6 42 -19 107 -29 143 -11 36 -36 126 -57 200 -32 115 -58 178 -84 200
-18 16 -70 92 -92 137 -29 57 -108 360 -108 414 0 24 9 41 38 68 51 48 104 66
402 141 25 6 59 15 75 19 51 15 708 3 806 -14z m-3024 -1181 c28 -13 56 -24
61 -24 18 0 81 -70 111 -124 20 -34 32 -73 37 -112 14 -140 52 -265 115 -384
54 -100 87 -227 99 -380 28 -367 57 -494 158 -695 76 -152 77 -157 76 -710 0
-329 -4 -516 -12 -570 -33 -220 -50 -292 -86 -367 -20 -41 -43 -106 -52 -144
-9 -38 -25 -98 -35 -133 -11 -35 -26 -138 -34 -230 -28 -313 -30 -321 -140
-521 -23 -42 -98 -258 -125 -360 -7 -25 -37 -82 -67 -128 -56 -83 -132 -230
-176 -340 -13 -32 -47 -90 -74 -128 -28 -38 -62 -91 -76 -119 -14 -27 -37 -65
-51 -84 -14 -18 -28 -48 -32 -65 -13 -60 -44 -105 -124 -177 -62 -57 -88 -88
-111 -137 -33 -70 -64 -104 -124 -134 -22 -11 -81 -61 -131 -112 -50 -50 -116
-113 -145 -141 -31 -28 -69 -77 -87 -112 -22 -41 -55 -81 -101 -122 -42 -38
-84 -87 -109 -129 -35 -58 -50 -73 -109 -107 -37 -22 -102 -72 -143 -112 -44
-42 -96 -81 -125 -94 -83 -37 -172 -98 -220 -151 -24 -27 -73 -72 -107 -100
-53 -42 -67 -49 -93 -44 -36 8 -65 41 -106 121 -18 33 -60 112 -94 175 -68
126 -72 142 -125 499 -22 150 -39 205 -109 355 -52 113 -60 156 -71 396 -5
107 -14 281 -20 385 -23 412 -29 702 -20 885 5 102 14 293 21 425 21 445 23
471 52 513 73 105 161 354 188 527 11 73 52 153 123 241 20 26 41 70 54 115
25 89 75 227 98 272 9 17 37 54 60 81 24 26 44 53 44 58 0 5 24 60 54 121 30
62 62 131 71 154 10 23 40 68 67 100 28 32 68 96 90 142 37 80 122 214 161
256 10 11 38 49 63 85 47 69 61 87 162 214 35 44 83 120 107 170 39 82 52 98
120 156 50 43 85 82 101 113 26 49 134 198 183 250 14 16 70 56 124 89 74 45
111 77 148 123 62 77 120 126 184 154 28 12 75 46 105 76 83 82 98 85 197 39z"/>
</g>
</svg>
